<svg width="26" height="26" viewBox="0 0 26 26" fill="none" xmlns="http://www.w3.org/2000/svg">
<g clip-path="url(#clip0_323_1396)">
<path d="M19.8174 18.7342C20.0124 18.5399 20.274 18.4271 20.5491 18.4187C20.8242 18.4103 21.0922 18.5069 21.2987 18.689C21.5051 18.871 21.6345 19.1248 21.6606 19.3988C21.6867 19.6728 21.6076 19.9465 21.4392 20.1642L21.3493 20.266L19.7243 21.891C19.4103 22.205 19.0376 22.4541 18.6273 22.624C18.2171 22.794 17.7774 22.8814 17.3334 22.8814C16.8893 22.8814 16.4496 22.794 16.0394 22.624C15.6291 22.4541 15.2564 22.205 14.9424 21.891C14.7319 21.6807 14.4515 21.5549 14.1544 21.5375C13.8572 21.5202 13.5641 21.6124 13.3304 21.7968L13.2243 21.891L12.6826 22.4327C12.4877 22.627 12.2261 22.7398 11.9509 22.7482C11.6758 22.7566 11.4078 22.66 11.2014 22.4779C10.9949 22.2959 10.8655 22.0421 10.8394 21.7681C10.8133 21.4941 10.8925 21.2204 11.0609 21.0027L11.1508 20.9009L11.6924 20.3592C12.0064 20.0452 12.3792 19.7961 12.7894 19.6262C13.1996 19.4562 13.6393 19.3688 14.0834 19.3688C14.5274 19.3688 14.9671 19.4562 15.3773 19.6262C15.7876 19.7961 16.1603 20.0452 16.4743 20.3592C16.6848 20.5695 16.9652 20.6953 17.2624 20.7127C17.5595 20.73 17.8526 20.6378 18.0863 20.4534L18.1924 20.3592L19.8174 18.7342ZM17.8566 4.31502C18.3514 3.8122 19.0229 3.52229 19.7282 3.50699C20.4335 3.49168 21.117 3.75218 21.6331 4.23307C22.1493 4.71395 22.4575 5.37726 22.4921 6.08188C22.5267 6.7865 22.2849 7.47681 21.8184 8.00594L21.6862 8.14677L9.14552 20.6864C8.98953 20.8425 8.80339 20.9652 8.59844 21.0471L8.44136 21.1002L5.36794 21.9744C5.19172 22.0248 5.0056 22.0297 4.82698 21.9886C4.64835 21.9476 4.48305 21.8619 4.34651 21.7397C4.20996 21.6174 4.10664 21.4625 4.04618 21.2895C3.98572 21.1165 3.97009 20.931 4.00077 20.7503L4.02786 20.6344L4.90211 17.5599C4.96275 17.3477 5.06596 17.1501 5.20544 16.9792L5.31594 16.8557L17.8566 4.31502Z" fill="black"/>
</g>
<defs>
<clipPath id="clip0_323_1396">
<rect width="26" height="26" fill="white"/>
</clipPath>
</defs>
</svg>
