<svg width="50" height="50" viewBox="0 0 50 50" fill="none" xmlns="http://www.w3.org/2000/svg">
<circle cx="25" cy="25" r="25" fill="url(#paint0_linear_458_838)"/>
<g clip-path="url(#clip0_458_838)">
<path d="M24.5108 22.6536C25.5058 22.6552 26.4595 23.0465 27.1631 23.7417C27.8666 24.4369 28.2626 25.3793 28.2643 26.3625V26.3661C28.2642 26.9761 28.1119 27.5766 27.8209 28.1146C27.5298 28.6525 27.1089 29.1112 26.5956 29.45C26.0823 29.7888 25.4923 29.9972 24.8779 30.0569C24.2636 30.1166 23.6438 30.0256 23.0735 29.792C22.5033 29.5584 22.0001 29.1894 21.6087 28.7178C21.2172 28.2461 20.9495 27.6863 20.8293 27.088C20.7091 26.4897 20.74 25.8713 20.9195 25.2877C21.0989 24.704 21.4213 24.1731 21.858 23.742C22.1946 23.3968 22.5983 23.1224 23.0448 22.9353C23.4914 22.7481 23.9716 22.652 24.4566 22.6527H24.5136H24.5108V22.6536ZM33.6857 17.2964H33.7354C34.6408 17.2964 35.4594 17.6661 36.0431 18.2616L36.044 18.2625C36.3538 18.5583 36.6001 18.9127 36.768 19.3047C36.936 19.6967 37.0223 20.1181 37.0217 20.5437V20.5955V20.5929V32.1321C37.0215 33.0063 36.6699 33.8447 36.0443 34.4628C35.4188 35.081 34.5704 35.4283 33.6857 35.4286H15.336C14.4513 35.4283 13.6029 35.081 12.9774 34.4628C12.3518 33.8447 12.0002 33.0063 12 32.1321V20.5446C12 19.65 12.3741 18.8411 12.9768 18.2643L12.9777 18.2634C13.277 17.9573 13.6357 17.714 14.0324 17.548C14.4291 17.382 14.8555 17.2967 15.2863 17.2973H15.3387H15.336H18.2545L18.9186 15.5455C19.1102 15.0929 19.4219 14.7223 19.8159 14.4625L19.8249 14.4571C20.2136 14.1682 20.6849 14.0081 21.1712 14H27.8459C28.3355 14.0082 28.8098 14.1698 29.2004 14.4616L29.195 14.4571C29.5971 14.7223 29.9097 15.0929 30.0949 15.5295L30.1012 15.5455L30.7654 17.2973L33.6857 17.2964ZM24.5108 32.1321L24.5931 32.133C25.3472 32.1339 26.0938 31.9845 26.7881 31.6936C27.4824 31.4027 28.1102 30.9764 28.6338 30.4402L28.6357 30.4384C29.1787 29.9208 29.6104 29.3002 29.9049 28.6138C30.1994 27.9274 30.3507 27.1893 30.3497 26.4438L30.3488 26.358V26.3625L30.3497 26.2804C30.3507 25.5352 30.1994 24.7974 29.905 24.1114C29.6107 23.4253 29.1792 22.805 28.6366 22.2875L28.6347 22.2857C27.5803 21.2393 26.1219 20.592 24.5099 20.592C22.898 20.592 21.4396 21.2393 20.3851 22.2848C19.8316 22.8125 19.3939 23.447 19.0992 24.149C18.8045 24.8509 18.659 25.6053 18.672 26.3652V26.3607L18.6711 26.4446C18.6711 28.0116 19.3271 29.4268 20.3824 30.4366L20.3842 30.4384C20.9081 30.975 21.5361 31.4016 22.2307 31.6926C22.9254 31.9836 23.6723 32.1331 24.4268 32.1321L24.5145 32.1312H24.5099L24.5108 32.1321Z" fill="white"/>
</g>
<defs>
<linearGradient id="paint0_linear_458_838" x1="25" y1="0" x2="25" y2="50" gradientUnits="userSpaceOnUse">
<stop stop-color="#FD814A"/>
<stop offset="1" stop-color="#FC5C4C"/>
</linearGradient>
<clipPath id="clip0_458_838">
<rect width="25.3" height="21.4286" fill="white" transform="translate(12 14)"/>
</clipPath>
</defs>
</svg>
