<svg width="36" height="32" viewBox="0 0 36 32" fill="none" xmlns="http://www.w3.org/2000/svg">
<path d="M1.99994 30L0.139945 29.26C0.00704296 29.5944 -0.0331792 29.9585 0.0235177 30.3138C0.0802146 30.6691 0.23173 31.0026 0.462093 31.279C0.692456 31.5555 0.993132 31.7646 1.33243 31.8845C1.67172 32.0043 2.03706 32.0304 2.38995 31.96L1.99994 30ZM11.4119 28.128L12.3599 26.366L11.7259 26.026L11.0219 26.166L11.4119 28.128ZM5.24794 21.834L7.10794 22.574L7.43394 21.746L7.04194 20.948L5.24794 21.834ZM31.9999 16C31.9999 22.492 26.2939 28 18.9399 28V32C28.2219 32 35.9999 24.972 35.9999 16H31.9999ZM5.88194 16C5.88194 9.508 11.5899 4 18.9419 4V0C9.65994 0 1.87994 7.028 1.87994 16H5.88194ZM18.9419 4C26.2939 4 31.9999 9.508 31.9999 16H35.9999C35.9999 7.028 28.2239 0 18.9419 0V4ZM18.9399 28C16.5299 28 14.2859 27.4 12.3599 26.366L10.4639 29.888C13.0716 31.2827 15.9827 32.0084 18.9399 32V28ZM2.38995 31.96L11.8019 30.088L11.0219 26.166L1.60994 28.038L2.38995 31.962V31.96ZM7.04194 20.948C6.2781 19.4104 5.88239 17.7169 5.88194 16H1.87994C1.87994 18.4 2.44394 20.676 3.45194 22.72L7.04194 20.948ZM3.38995 21.094L0.139945 29.262L3.85594 30.738L7.10394 22.572L3.38794 21.094H3.38995Z" fill="white"/>
<path d="M12 18C13.1046 18 14 17.1046 14 16C14 14.8954 13.1046 14 12 14C10.8954 14 10 14.8954 10 16C10 17.1046 10.8954 18 12 18Z" fill="white"/>
<path d="M19 18C20.1046 18 21 17.1046 21 16C21 14.8954 20.1046 14 19 14C17.8954 14 17 14.8954 17 16C17 17.1046 17.8954 18 19 18Z" fill="white"/>
<path d="M26 18C27.1046 18 28 17.1046 28 16C28 14.8954 27.1046 14 26 14C24.8954 14 24 14.8954 24 16C24 17.1046 24.8954 18 26 18Z" fill="white"/>
</svg>
