<svg width="20" height="21" viewBox="0 0 20 21" fill="none" xmlns="http://www.w3.org/2000/svg">
<path d="M9.40066 17.1194L16.7964 9.72364C15.5521 9.20413 14.422 8.4451 13.4705 7.48972C12.5147 6.53796 11.7553 5.40756 11.2356 4.16283L3.83986 11.5586C3.26288 12.1355 2.97389 12.4245 2.7259 12.7425C2.43302 13.1178 2.18188 13.5238 1.97692 13.9535C1.80393 14.3175 1.67494 14.7055 1.41694 15.4794L0.0549935 19.5623C-0.00769048 19.7492 -0.0169906 19.9499 0.0281383 20.1419C0.0732672 20.3338 0.171036 20.5094 0.310456 20.6488C0.449875 20.7882 0.625418 20.886 0.817353 20.9311C1.00929 20.9762 1.21001 20.9669 1.39695 20.9042L5.4798 19.5423C6.25477 19.2843 6.64176 19.1553 7.00574 18.9823C7.43573 18.7773 7.84171 18.5263 8.2167 18.2333C8.53469 17.9853 8.82368 17.6964 9.40066 17.1194ZM18.8483 7.67171C19.5857 6.9343 20 5.93416 20 4.89131C20 3.84846 19.5857 2.84832 18.8483 2.11091C18.1109 1.3735 17.1108 0.959229 16.0679 0.959229C15.0251 0.959229 14.0249 1.3735 13.2875 2.11091L12.4006 2.99788L12.4385 3.10887C12.8756 4.35954 13.5909 5.49469 14.5305 6.42875C15.4925 7.39642 16.6674 8.1258 17.9614 8.55868L18.8483 7.67171Z" fill="white"/>
</svg>
