<svg width="24" height="24" viewBox="0 0 24 24" fill="none" xmlns="http://www.w3.org/2000/svg">
<path d="M11.0458 18.9882L19.7358 10.2982C18.2737 9.68776 16.9459 8.7959 15.8279 7.67332C14.7047 6.55501 13.8125 5.22679 13.2018 3.76424L4.51183 12.4542C3.83388 13.1322 3.49432 13.4717 3.20293 13.8454C2.85879 14.2863 2.56371 14.7634 2.32289 15.2682C2.11962 15.6959 1.96805 16.1518 1.66491 17.0612L0.0646174 21.8586C-0.00903632 22.0782 -0.0199639 22.3141 0.0330625 22.5396C0.086089 22.7651 0.200968 22.9714 0.364786 23.1352C0.528604 23.299 0.734867 23.4139 0.96039 23.4669C1.18591 23.52 1.42176 23.509 1.64141 23.4354L6.43876 21.8351C7.34936 21.5319 7.80407 21.3804 8.23175 21.1771C8.73698 20.9362 9.21401 20.6413 9.65462 20.2971C10.0283 20.0057 10.3678 19.6661 11.0458 18.9882ZM22.1468 7.88716C23.0132 7.02071 23.5 5.84555 23.5 4.62019C23.5 3.39484 23.0132 2.21968 22.1468 1.35322C21.2803 0.486769 20.1052 9.12958e-09 18.8798 0C17.6545 -9.12958e-09 16.4793 0.486769 15.6128 1.35322L14.5706 2.39541L14.6153 2.52583C15.1289 3.99537 15.9693 5.32917 17.0733 6.42669C18.2037 7.5637 19.5841 8.42072 21.1046 8.92935L22.1468 7.88716Z" fill="#FD814A"/>
</svg>
