<svg width="29" height="29" viewBox="0 0 29 29" fill="none" xmlns="http://www.w3.org/2000/svg">
<path d="M14.8 28.3C22.5322 28.3 28.8 22.0322 28.8 14.3C28.8 6.56785 22.5322 0.300049 14.8 0.300049C7.06785 0.300049 0.800049 6.56785 0.800049 14.3C0.800049 16.54 1.32645 18.6568 2.26025 20.5342C2.50945 21.0326 2.59205 21.6024 2.44785 22.1414L1.61485 25.2578C1.53235 25.5662 1.53242 25.8909 1.61507 26.1993C1.69771 26.5077 1.86001 26.7889 2.08569 27.0147C2.31136 27.2405 2.59247 27.403 2.90079 27.4858C3.2091 27.5687 3.53379 27.5689 3.84225 27.4866L6.95865 26.6522C7.49962 26.5161 8.07169 26.5823 8.56725 26.8384C10.5033 27.8025 12.6372 28.3029 14.8 28.3Z" fill="#current"/>
</svg>
