<svg width="30" height="30" viewBox="0 0 30 30" fill="none" xmlns="http://www.w3.org/2000/svg">
<path d="M6.90625 20.219L11.3437 15.7815C11.5937 15.5315 11.8854 15.4115 12.2187 15.4215C12.5521 15.4315 12.8438 15.5619 13.0938 15.8127C13.3229 16.0627 13.4375 16.3544 13.4375 16.6877C13.4375 17.0211 13.3229 17.3127 13.0938 17.5627L7.8125 22.8752C7.5625 23.1252 7.27083 23.2502 6.9375 23.2502C6.60417 23.2502 6.3125 23.1252 6.0625 22.8752L3.375 20.1877C3.14583 19.9586 3.03125 19.6669 3.03125 19.3127C3.03125 18.9586 3.14583 18.6669 3.375 18.4377C3.60417 18.2086 3.89583 18.094 4.25 18.094C4.60417 18.094 4.89583 18.2086 5.125 18.4377L6.90625 20.219ZM6.90625 10.219L11.3437 5.78148C11.5937 5.53148 11.8854 5.41148 12.2187 5.42148C12.5521 5.43148 12.8438 5.56189 13.0938 5.81273C13.3229 6.06273 13.4375 6.35439 13.4375 6.68773C13.4375 7.02106 13.3229 7.31273 13.0938 7.56273L7.8125 12.8752C7.5625 13.1252 7.27083 13.2502 6.9375 13.2502C6.60417 13.2502 6.3125 13.1252 6.0625 12.8752L3.375 10.1877C3.14583 9.95856 3.03125 9.66689 3.03125 9.31272C3.03125 8.95856 3.14583 8.66689 3.375 8.43773C3.60417 8.20856 3.89583 8.09398 4.25 8.09398C4.60417 8.09398 4.89583 8.20856 5.125 8.43773L6.90625 10.219ZM17.5 21.2502C17.1458 21.2502 16.8492 21.1302 16.61 20.8902C16.3708 20.6502 16.2508 20.3536 16.25 20.0002C16.2492 19.6469 16.3692 19.3502 16.61 19.1102C16.8508 18.8702 17.1475 18.7502 17.5 18.7502H26.25C26.6042 18.7502 26.9013 18.8702 27.1413 19.1102C27.3813 19.3502 27.5008 19.6469 27.5 20.0002C27.4992 20.3536 27.3792 20.6506 27.14 20.8915C26.9008 21.1323 26.6042 21.2519 26.25 21.2502H17.5ZM17.5 11.2502C17.1458 11.2502 16.8492 11.1302 16.61 10.8902C16.3708 10.6502 16.2508 10.3536 16.25 10.0002C16.2492 9.64689 16.3692 9.35023 16.61 9.11023C16.8508 8.87023 17.1475 8.75023 17.5 8.75023H26.25C26.6042 8.75023 26.9013 8.87023 27.1413 9.11023C27.3813 9.35023 27.5008 9.64689 27.5 10.0002C27.4992 10.3536 27.3792 10.6506 27.14 10.8915C26.9008 11.1323 26.6042 11.2519 26.25 11.2502H17.5Z" fill="#FD814A"/>
</svg>
