<svg width="28" height="28" viewBox="0 0 28 28" fill="none" xmlns="http://www.w3.org/2000/svg">
<path fill-rule="evenodd" clip-rule="evenodd" d="M23.5919 0.38723C25.5543 -0.71943 28 0.677692 28 2.90844V21.1407C28 23.37 25.5558 24.7686 23.5919 23.662L17.6869 20.3362V3.71302L23.5919 0.38723ZM14.7404 4.76304H7.37389C5.54708 4.76123 3.78475 5.42861 2.42902 6.63561C1.0733 7.84261 0.220904 9.50313 0.0373117 11.2948C-0.146281 13.0865 0.352029 14.8815 1.4355 16.3314C2.51898 17.7813 4.11032 18.7826 5.90059 19.1409V24.3692C5.90059 25.3322 6.28865 26.2557 6.97939 26.9366C7.67013 27.6175 8.60697 28 9.58383 28C10.5607 28 11.4975 27.6175 12.1883 26.9366C12.879 26.2557 13.2671 25.3322 13.2671 24.3692V19.2861H14.7404V4.76304Z" fill="current"/>
</svg>
