<svg width="21" height="20" viewBox="0 0 21 20" fill="none" xmlns="http://www.w3.org/2000/svg">
<g clip-path="url(#clip0_508_617)">
<path d="M19.6739 9.71052C19.6739 8.93165 19.612 8.36328 19.4782 7.77386H10.7724V11.2893H15.8825C15.7795 12.1629 15.2232 13.4786 13.9868 14.3627L13.9695 14.4804L16.7221 16.6589L16.9128 16.6784C18.6642 15.0258 19.6739 12.5945 19.6739 9.71052Z" fill="#4285F4"/>
<path d="M10.7724 18.9729C13.2759 18.9729 15.3776 18.1308 16.9128 16.6783L13.9868 14.3627C13.2038 14.9205 12.1529 15.31 10.7724 15.31C8.32036 15.31 6.23924 13.6575 5.49738 11.3735L5.38864 11.383L2.52644 13.6459L2.48901 13.7522C4.01379 16.8467 7.14581 18.9729 10.7724 18.9729Z" fill="#34A853"/>
<path d="M5.4974 11.3735C5.30165 10.7841 5.18836 10.1525 5.18836 9.49998C5.18836 8.84736 5.30165 8.21586 5.4871 7.62645L5.48191 7.50092L2.58385 5.2016L2.48903 5.24768C1.8606 6.53179 1.5 7.9738 1.5 9.49998C1.5 11.0262 1.8606 12.4681 2.48903 13.7522L5.4974 11.3735Z" fill="#FBBC05"/>
<path d="M10.7724 3.68997C12.5135 3.68997 13.688 4.45832 14.3577 5.10042L16.9746 2.4901C15.3674 0.963925 13.2759 0.0271606 10.7724 0.0271606C7.14581 0.0271606 4.01379 2.15327 2.48901 5.24772L5.48708 7.62649C6.23924 5.34248 8.32036 3.68997 10.7724 3.68997Z" fill="#EB4335"/>
</g>
<defs>
<clipPath id="clip0_508_617">
<rect x="1.5" width="18.1739" height="19" rx="9.08696" fill="white"/>
</clipPath>
</defs>
</svg>
