<svg width="28" height="28" viewBox="0 0 28 28" fill="none" xmlns="http://www.w3.org/2000/svg">
<path d="M15.1666 3.5C10.7683 3.5 7.22164 6.94167 6.99998 11.27L4.75998 14.2217C4.47998 14.5833 4.75998 15.1667 5.24998 15.1667H6.99998V18.6667C6.99998 19.9617 8.03831 21 9.33331 21H10.5V24.5H18.6666V19.0283C21.4316 17.7217 23.3333 14.9333 23.3333 11.6667C23.3333 7.16333 19.6933 3.5 15.1666 3.5ZM11.6666 12.8333C11.025 12.8333 10.5 12.3083 10.5 11.6667C10.5 11.025 11.025 10.5 11.6666 10.5C12.3083 10.5 12.8333 11.025 12.8333 11.6667C12.8333 12.3083 12.3083 12.8333 11.6666 12.8333ZM15.1666 12.8333C14.525 12.8333 14 12.3083 14 11.6667C14 11.025 14.525 10.5 15.1666 10.5C15.8083 10.5 16.3333 11.025 16.3333 11.6667C16.3333 12.3083 15.8083 12.8333 15.1666 12.8333ZM18.6666 12.8333C18.025 12.8333 17.5 12.3083 17.5 11.6667C17.5 11.025 18.025 10.5 18.6666 10.5C19.3083 10.5 19.8333 11.025 19.8333 11.6667C19.8333 12.3083 19.3083 12.8333 18.6666 12.8333Z" fill="white"/>
</svg>
