<svg width="28" height="28" viewBox="0 0 28 28" fill="none" xmlns="http://www.w3.org/2000/svg">
<path d="M23.2395 0C26.4179 0 28 1.58209 28 4.71512V23.2855C28 26.4186 26.4179 28 23.2388 28H4.77547C1.61194 28 0 26.4335 0 23.2855V4.71512C0 1.56651 1.61194 0 4.77612 0H23.2395ZM6.2122 19.1914C5.86799 19.1914 5.53787 19.3282 5.29448 19.5716C5.05108 19.815 4.91434 20.1451 4.91434 20.4893C4.91434 20.8335 5.05108 21.1636 5.29448 21.407C5.53787 21.6504 5.86799 21.7872 6.2122 21.7872C6.55641 21.7872 6.88653 21.6504 7.12992 21.407C7.37332 21.1636 7.51006 20.8335 7.51006 20.4893C7.51006 20.1451 7.37332 19.815 7.12992 19.5716C6.88653 19.3282 6.55641 19.1914 6.2122 19.1914ZM22.5535 19.1914H11.9345C11.2829 19.1914 10.7547 19.7729 10.7547 20.4893C10.7547 21.2064 11.2829 21.7872 11.9345 21.7872H22.5535C23.2051 21.7872 23.7333 21.2064 23.7333 20.4893C23.7333 19.7729 23.2051 19.1914 22.5535 19.1914ZM6.2122 12.7021C5.86799 12.7021 5.53787 12.8389 5.29448 13.0823C5.05108 13.3257 4.91434 13.6558 4.91434 14C4.91434 14.3442 5.05108 14.6743 5.29448 14.9177C5.53787 15.1611 5.86799 15.2979 6.2122 15.2979C6.55641 15.2979 6.88653 15.1611 7.12992 14.9177C7.37332 14.6743 7.51006 14.3442 7.51006 14C7.51006 13.6558 7.37332 13.3257 7.12992 13.0823C6.88653 12.8389 6.55641 12.7021 6.2122 12.7021ZM22.5535 12.7021H11.9345C11.2829 12.7021 10.7547 13.2836 10.7547 14C10.7547 14.7171 11.2829 15.2979 11.9345 15.2979H22.5535C23.2051 15.2979 23.7333 14.7171 23.7333 14C23.7333 13.2836 23.2051 12.7021 22.5535 12.7021ZM6.2122 6.21285C5.86799 6.21285 5.53787 6.34959 5.29448 6.59298C5.05108 6.83638 4.91434 7.16649 4.91434 7.51071C4.91434 7.85492 5.05108 8.18503 5.29448 8.42843C5.53787 8.67183 5.86799 8.80857 6.2122 8.80857C6.55641 8.80857 6.88653 8.67183 7.12992 8.42843C7.37332 8.18503 7.51006 7.85492 7.51006 7.51071C7.51006 7.16649 7.37332 6.83638 7.12992 6.59298C6.88653 6.34959 6.55641 6.21285 6.2122 6.21285ZM22.5535 6.21285H11.9345C11.2829 6.21285 10.7547 6.79429 10.7547 7.51071C10.7547 8.22777 11.2829 8.80857 11.9345 8.80857H22.5535C23.2051 8.80857 23.7333 8.22777 23.7333 7.51071C23.7333 6.79429 23.2051 6.21285 22.5535 6.21285Z" fill="#current"/>
</svg>
