<svg width="27" height="24" viewBox="0 0 27 24" fill="none" xmlns="http://www.w3.org/2000/svg">
<path d="M6.65151 0.113584C7.83084 -0.0873567 9.04023 -0.0210712 10.1905 0.307554C11.3408 0.63618 12.4027 1.21877 13.2979 2.01237L13.3472 2.05634L13.3925 2.01637C14.2469 1.26658 15.2514 0.707599 16.3389 0.376726C17.4264 0.0458535 18.572 -0.0493064 19.6992 0.0975945L20.027 0.145564C21.4478 0.390886 22.7758 1.01588 23.8705 1.95437C24.9651 2.89285 25.7855 4.10989 26.2449 5.4766C26.7043 6.84332 26.7856 8.30883 26.48 9.71794C26.1745 11.1271 25.4936 12.4273 24.5094 13.481L24.2696 13.7276L24.2056 13.7822L14.2786 23.6146C14.0496 23.8413 13.7461 23.9773 13.4244 23.9974C13.1027 24.0175 12.7846 23.9203 12.5291 23.7238L12.4038 23.6146L2.41955 13.7249C1.36185 12.6958 0.60964 11.394 0.246218 9.96365C-0.117205 8.53335 -0.0776531 7.03036 0.360492 5.62115C0.798636 4.21194 1.61828 2.9515 2.72864 1.97942C3.839 1.00734 5.19675 0.361554 6.65151 0.113584Z" fill="black"/>
</svg>
