<svg width="26" height="26" viewBox="0 0 26 26" fill="none" xmlns="http://www.w3.org/2000/svg">
<path d="M13 8.125C13.8975 8.125 14.625 7.39746 14.625 6.5C14.625 5.60254 13.8975 4.875 13 4.875C12.1025 4.875 11.375 5.60254 11.375 6.5C11.375 7.39746 12.1025 8.125 13 8.125Z" fill="black"/>
<path d="M13 14.625C13.8975 14.625 14.625 13.8975 14.625 13C14.625 12.1025 13.8975 11.375 13 11.375C12.1025 11.375 11.375 12.1025 11.375 13C11.375 13.8975 12.1025 14.625 13 14.625Z" fill="black"/>
<path d="M13 20.5835C13.8975 20.5835 14.625 19.856 14.625 18.9585C14.625 18.061 13.8975 17.3335 13 17.3335C12.1025 17.3335 11.375 18.061 11.375 18.9585C11.375 19.856 12.1025 20.5835 13 20.5835Z" fill="black"/>
</svg>
