<svg width="30" height="30" viewBox="0 0 30 30" fill="none" xmlns="http://www.w3.org/2000/svg">
<path d="M26.25 11.25C26.25 11.25 26.25 12.3131 25.814 13.7109L20.9559 8.85375C20.6924 8.58995 20.335 8.44158 19.9621 8.44125H15.6468C15.3324 8.44147 15.027 8.5471 14.7796 8.74125L13.0762 10.0744C12.9593 10.166 12.8255 10.2336 12.6824 10.2734C12.5393 10.3133 12.3898 10.3245 12.2424 10.3065C12.095 10.2884 11.9525 10.2415 11.8233 10.1684C11.694 10.0953 11.5804 9.99738 11.489 9.88031C11.3044 9.64356 11.2211 9.34325 11.2575 9.04521C11.2938 8.74716 11.4469 8.4757 11.6831 8.29031L17.4956 3.75H18.75C20.7391 3.75 22.6467 4.54018 24.0533 5.9467C25.4598 7.35322 26.25 9.26088 26.25 11.25ZM6.92246 14.3719C6.82867 14.2779 6.71725 14.2033 6.59458 14.1524C6.47192 14.1015 6.34042 14.0753 6.20761 14.0753C6.07481 14.0753 5.94331 14.1015 5.82064 14.1524C5.69798 14.2033 5.58656 14.2779 5.49277 14.3719L4.04527 15.825C3.85555 16.0155 3.74902 16.2734 3.74902 16.5422C3.74902 16.811 3.85555 17.0689 4.04527 17.2594C4.13906 17.3534 4.25048 17.428 4.37314 17.4789C4.49581 17.5298 4.62731 17.556 4.76011 17.556C4.89292 17.556 5.02442 17.5298 5.14708 17.4789C5.26975 17.428 5.38117 17.3534 5.47496 17.2594L6.92246 15.8062C7.11212 15.6159 7.21862 15.3582 7.21862 15.0895C7.21862 14.8208 7.11212 14.5631 6.92246 14.3728M8.41871 16.3312C8.51245 16.237 8.62391 16.1622 8.74667 16.1111C8.86943 16.06 9.00107 16.0338 9.13402 16.0338C9.26697 16.0338 9.39861 16.06 9.52137 16.1111C9.64413 16.1622 9.75559 16.237 9.84933 16.3312C10.0388 16.5217 10.1451 16.7794 10.1451 17.048C10.1451 17.3166 10.0388 17.5743 9.84933 17.7647L8.39996 19.215C8.30623 19.3091 8.19483 19.3838 8.07216 19.4348C7.94949 19.4858 7.81795 19.512 7.68511 19.512C7.55227 19.512 7.42074 19.4858 7.29807 19.4348C7.17539 19.3838 7.064 19.3091 6.97027 19.215C6.78083 19.0246 6.67449 18.7669 6.67449 18.4983C6.67449 18.2297 6.78083 17.972 6.97027 17.7816L8.41871 16.3312ZM12.2784 18.7659C12.1846 18.6719 12.0732 18.5973 11.9505 18.5464C11.8279 18.4955 11.6964 18.4693 11.5636 18.4693C11.4307 18.4693 11.2992 18.4955 11.1766 18.5464C11.0539 18.5973 10.9425 18.6719 10.8487 18.7659L9.40121 20.2172C9.21126 20.4075 9.10457 20.6655 9.10457 20.9344C9.10457 21.2033 9.21126 21.4612 9.40121 21.6516C9.49493 21.7457 9.60633 21.8204 9.72901 21.8714C9.85168 21.9223 9.98321 21.9486 10.1161 21.9486C10.2489 21.9486 10.3804 21.9223 10.5031 21.8714C10.6258 21.8204 10.7372 21.7457 10.8309 21.6516L12.2784 20.1994C12.4681 20.0089 12.5746 19.751 12.5746 19.4822C12.5746 19.2134 12.4681 18.9564 12.2784 18.7659ZM14.7065 21.1987C14.6128 21.1045 14.5013 21.0297 14.3786 20.9786C14.2558 20.9276 14.1242 20.9013 13.9912 20.9013C13.8583 20.9013 13.7266 20.9276 13.6039 20.9786C13.4811 21.0297 13.3696 21.1045 13.2759 21.1987L11.8284 22.6509C11.639 22.8414 11.5326 23.099 11.5326 23.3677C11.5326 23.6363 11.639 23.8939 11.8284 24.0844C11.9221 24.1785 12.0335 24.2532 12.1562 24.3042C12.2789 24.3551 12.4104 24.3814 12.5432 24.3814C12.6761 24.3814 12.8076 24.3551 12.9303 24.3042C13.053 24.2532 13.1644 24.1785 13.2581 24.0844L14.7056 22.6322C14.8952 22.4419 15.0017 22.1841 15.0017 21.9155C15.0017 21.6468 14.8952 21.3891 14.7056 21.1987M14.099 4.02375C13.6052 3.87789 13.0968 3.78672 12.5831 3.75187L12.4987 3.75H12.1875C10.1983 3.75 8.29068 4.54018 6.88416 5.9467C5.47763 7.35322 4.68746 9.26088 4.68746 11.25V13.2066C5.15089 12.8295 5.73789 12.6381 6.33452 12.6694C6.93115 12.7008 7.49485 12.9527 7.91621 13.3762C8.28464 13.7466 8.50964 14.2069 8.59027 14.6869C8.94594 14.6054 9.31544 14.6055 9.67109 14.687C10.0267 14.7686 10.3593 14.9296 10.6439 15.1579C10.9285 15.3863 11.1578 15.676 11.3145 16.0055C11.4713 16.3351 11.5514 16.6957 11.549 17.0606C11.8689 17.0591 12.1858 17.1211 12.4816 17.2429C12.7773 17.3647 13.046 17.544 13.2719 17.7704C13.4979 17.9967 13.6768 18.2656 13.7982 18.5615C13.9195 18.8575 13.981 19.1745 13.979 19.4944C14.2981 19.4928 14.6143 19.5547 14.9093 19.6764C15.2043 19.798 15.4722 19.9771 15.6975 20.2031C16.1503 20.6581 16.4045 21.274 16.4045 21.9159C16.4045 22.5579 16.1503 23.1737 15.6975 23.6287L15.4865 23.8406L16.6809 25.0256C16.8703 25.212 17.1253 25.3164 17.3911 25.3164C17.6568 25.3164 17.9118 25.212 18.1012 25.0256C18.4893 24.6412 18.4903 24.0187 18.1031 23.6334C17.9701 23.5015 17.8949 23.3222 17.8941 23.1349C17.8933 22.9475 17.967 22.7676 18.0989 22.6345C18.2308 22.5015 18.4101 22.4263 18.5974 22.4255C18.7848 22.4247 18.9647 22.4984 19.0978 22.6303C19.2872 22.8167 19.5422 22.9211 19.8079 22.9211C20.0736 22.9211 20.3287 22.8167 20.5181 22.6303C20.6103 22.5393 20.6835 22.4308 20.7335 22.3113C20.7835 22.1918 20.8092 22.0635 20.8093 21.9339C20.8094 21.8044 20.7838 21.6761 20.734 21.5565C20.6841 21.4369 20.6111 21.3284 20.519 21.2372C20.3944 21.1036 20.3263 20.9269 20.3291 20.7442C20.3319 20.5615 20.4053 20.387 20.534 20.2573C20.6626 20.1275 20.8365 20.0526 21.0192 20.0483C21.2018 20.044 21.3791 20.1106 21.5137 20.2341C21.7033 20.4199 21.9583 20.5238 22.2238 20.5235C22.4893 20.5231 22.744 20.4185 22.9331 20.2322C23.3306 19.8384 23.3287 19.1991 22.949 18.8212L22.9462 18.8194L20.834 16.7062C20.7098 16.573 20.6422 16.3967 20.6454 16.2145C20.6486 16.0324 20.7224 15.8586 20.8512 15.7297C20.9801 15.6009 21.1539 15.5271 21.336 15.5239C21.5182 15.5207 21.6945 15.5883 21.8278 15.7125L24.299 18.1809C24.7931 18.6712 25.6078 18.6759 26.0362 18.2512C26.4628 17.8284 26.459 17.0259 25.9696 16.5394L25.9678 16.5375L19.7465 10.3172H15.809L14.2321 11.5509C13.9213 11.7942 13.5656 11.9738 13.1853 12.0795C12.8051 12.1852 12.4077 12.215 12.0159 12.1671C11.6242 12.1192 11.2457 11.9946 10.9021 11.8004C10.5585 11.6062 10.2565 11.3462 10.0134 11.0353C9.5222 10.4069 9.3006 9.6091 9.39729 8.81735C9.49397 8.02559 9.90103 7.3046 10.529 6.81281L14.099 4.02375Z" fill="#FD814A"/>
</svg>
