<svg width="46" height="47" viewBox="0 0 46 47" fill="none" xmlns="http://www.w3.org/2000/svg">
<g clip-path="url(#clip0_434_1053)">
<rect y="0.165771" width="46" height="46" rx="23" fill="url(#paint0_linear_434_1053)"/>
<path fill-rule="evenodd" clip-rule="evenodd" d="M23.0272 34.1658C22.6459 34.1658 22.2803 34.0143 22.0107 33.7447C21.7411 33.4751 21.5896 33.1095 21.5896 32.7282V16.0714L15.4176 22.2435C15.1451 22.4974 14.7846 22.6356 14.4122 22.6291C14.0398 22.6225 13.6844 22.4716 13.4211 22.2082C13.1577 21.9448 13.0068 21.5895 13.0002 21.2171C12.9937 20.8446 13.1319 20.4842 13.3858 20.2117L22.0113 11.5862C22.2809 11.317 22.6462 11.1658 23.0272 11.1658C23.4082 11.1658 23.7735 11.317 24.0431 11.5862L32.6686 20.2117C32.9225 20.4842 33.0607 20.8446 33.0542 21.2171C33.0476 21.5895 32.8967 21.9448 32.6333 22.2082C32.3699 22.4716 32.0146 22.6225 31.6422 22.6291C31.2697 22.6356 30.9093 22.4974 30.6368 22.2435L24.4648 16.0714V32.7282C24.4648 33.1095 24.3133 33.4751 24.0437 33.7447C23.7741 34.0143 23.4085 34.1658 23.0272 34.1658Z" fill="white"/>
</g>
<defs>
<linearGradient id="paint0_linear_434_1053" x1="23" y1="0.165771" x2="23" y2="46.1658" gradientUnits="userSpaceOnUse">
<stop stop-color="#FD814A"/>
<stop offset="1" stop-color="#FC5C4C"/>
</linearGradient>
<clipPath id="clip0_434_1053">
<rect y="0.165771" width="46" height="46" rx="23" fill="white"/>
</clipPath>
</defs>
</svg>
