<svg width="32" height="25" viewBox="0 0 32 25" fill="none" xmlns="http://www.w3.org/2000/svg">
<path fill-rule="evenodd" clip-rule="evenodd" d="M1.56267 1.56267C-1.05964e-07 3.12356 0 5.63911 0 10.6667V14.2222C0 19.2498 -1.05964e-07 21.7653 1.56267 23.3262C3.12356 24.8889 5.63911 24.8889 10.6667 24.8889H21.3333C26.3609 24.8889 28.8764 24.8889 30.4373 23.3262C32 21.7653 32 19.2498 32 14.2222V10.6667C32 5.63911 32 3.12356 30.4373 1.56267C28.8764 3.17891e-07 26.3609 0 21.3333 0H10.6667C5.63911 0 3.12356 3.17891e-07 1.56267 1.56267ZM6.32 5.632C5.92772 5.37032 5.44755 5.27519 4.98512 5.36754C4.5227 5.45989 4.1159 5.73216 3.85422 6.12444C3.59254 6.51673 3.49741 6.9969 3.58976 7.45932C3.68212 7.92174 3.95438 8.32854 4.34667 8.59022L14.0284 15.0436C14.6124 15.4326 15.2983 15.6402 16 15.6402C16.7017 15.6402 17.3876 15.4326 17.9716 15.0436L27.6533 8.59022C28.0456 8.32854 28.3179 7.92174 28.4102 7.45932C28.5026 6.9969 28.4075 6.51673 28.1458 6.12444C27.8841 5.73216 27.4773 5.45989 27.0149 5.36754C26.5525 5.27519 26.0723 5.37032 25.68 5.632L16 12.0853L6.32 5.632Z" fill="url(#paint0_linear_317_896)"/>
<defs>
<linearGradient id="paint0_linear_317_896" x1="16" y1="0" x2="16" y2="24.8889" gradientUnits="userSpaceOnUse">
<stop stop-color="#FD814A"/>
<stop offset="1" stop-color="#FC5C4C"/>
</linearGradient>
</defs>
</svg>
