<svg width="30" height="30" viewBox="0 0 30 30" fill="none" xmlns="http://www.w3.org/2000/svg">
<path d="M13.125 15H15V20H17.5M15 10H15.0125M16.9538 26.0788C18.4173 25.8316 19.8174 25.2973 21.0735 24.5066C22.3296 23.7159 23.4168 22.6845 24.2725 21.4717C25.1282 20.259 25.7355 18.8889 26.0593 17.4404C26.3832 15.992 26.4172 14.4937 26.1594 13.032C25.9016 11.5704 25.3572 10.1741 24.5574 8.9238C23.7576 7.67347 22.7183 6.59377 21.4994 5.74689C20.2805 4.90001 18.9061 4.3027 17.4553 3.98937C16.0045 3.67604 14.506 3.6529 13.0463 3.92126C10.1256 4.45819 7.53579 6.12807 5.84142 8.56679C4.14704 11.0055 3.4856 14.0152 4.00133 16.9396C4.51705 19.8641 6.16811 22.466 8.59447 24.178C11.0208 25.89 14.0257 26.5733 16.9538 26.0788Z" stroke="#FD814A" stroke-width="2.5" stroke-linecap="round" stroke-linejoin="round"/>
</svg>
