<svg width="48" height="48" viewBox="0 0 48 48" fill="none" xmlns="http://www.w3.org/2000/svg">
<g clip-path="url(#clip0_1959_692)">
<g clip-path="url(#clip1_1959_692)">
<path d="M7.47966 7.83584L8.13919 41.1583L40.8083 7.98692L7.47966 7.83584Z" fill="white"/>
<path d="M40.5369 8.25366L7.20789 8.22374L39.6964 41.5721L40.5369 8.25366Z" fill="white"/>
<path d="M34.4494 17.6377L8.65292 25.082L41.6361 43.5071L34.4494 17.6377Z" fill="white"/>
<path d="M15.3502 17.0677L7.39876 42.7125L40.9143 25.2746L15.3502 17.0677Z" fill="white"/>
<path d="M8 4H40C40.5304 4 41.0391 4.21071 41.4142 4.58579C41.7893 4.96086 42 5.46957 42 6V44.552C42.0002 44.7189 41.9586 44.8831 41.879 45.0298C41.7995 45.1765 41.6845 45.3009 41.5445 45.3918C41.4045 45.4826 41.244 45.537 41.0777 45.55C40.9113 45.563 40.7443 45.5341 40.592 45.466L24 38.06L7.408 45.464C7.25581 45.532 7.08902 45.5609 6.92282 45.548C6.75662 45.5352 6.59627 45.481 6.45635 45.3903C6.31644 45.2997 6.2014 45.1755 6.1217 45.0291C6.042 44.8827 6.00016 44.7187 6 44.552V6C6 5.46957 6.21071 4.96086 6.58579 4.58579C6.96086 4.21071 7.46957 4 8 4ZM24 27L29.878 30.09L28.756 23.546L33.51 18.91L26.94 17.954L24 12L21.06 17.954L14.49 18.91L19.244 23.546L18.124 30.09L24 27Z" fill="#FC5C4C"/>
</g>
</g>
<defs>
<clipPath id="clip0_1959_692">
<rect width="48" height="48" fill="white"/>
</clipPath>
<clipPath id="clip1_1959_692">
<rect width="48" height="48" fill="white"/>
</clipPath>
</defs>
</svg>
