<svg width="24" height="24" viewBox="0 0 24 24" fill="none" xmlns="http://www.w3.org/2000/svg">
<path d="M23.4004 10.5334L18.5715 14.7477L20.018 21.0221C20.0946 21.3501 20.0727 21.6934 19.9552 22.0091C19.8377 22.3247 19.6298 22.5987 19.3574 22.7969C19.085 22.995 18.7603 23.1084 18.4237 23.123C18.0872 23.1375 17.7539 23.0526 17.4654 22.8787L11.993 19.5595L6.53242 22.8787C6.24394 23.0526 5.91061 23.1375 5.57411 23.123C5.23761 23.1084 4.91286 22.995 4.64047 22.7969C4.36809 22.5987 4.16014 22.3247 4.04265 22.0091C3.92515 21.6934 3.9033 21.3501 3.97985 21.0221L5.42424 14.7542L0.594267 10.5334C0.338806 10.3131 0.15408 10.0223 0.0632555 9.69736C-0.0275688 9.37247 -0.0204485 9.02799 0.0837233 8.70713C0.187895 8.38626 0.384481 8.1033 0.648829 7.89372C0.913177 7.68413 1.23352 7.55726 1.56968 7.52902L7.93612 6.9776L10.4212 1.05015C10.551 0.739128 10.7699 0.473455 11.0504 0.286584C11.3308 0.0997131 11.6603 0 11.9973 0C12.3343 0 12.6638 0.0997131 12.9443 0.286584C13.2247 0.473455 13.4436 0.739128 13.5734 1.05015L16.066 6.9776L22.4303 7.52902C22.7665 7.55726 23.0868 7.68413 23.3512 7.89372C23.6155 8.1033 23.8121 8.38626 23.9163 8.70713C24.0204 9.02799 24.0276 9.37247 23.9367 9.69736C23.8459 10.0223 23.6612 10.3131 23.4057 10.5334H23.4004Z" fill="#FD814A"/>
</svg>
