<svg width="100%" height="100%" viewBox="0 0 100 100" fill="none" xmlns="http://www.w3.org/2000/svg">
<circle cx="50" cy="50" r="50" fill="#CCCCCC"/>
<path fill-rule="evenodd" clip-rule="evenodd" d="M39.5 37C39.5 34.3478 40.5536 31.8043 42.4289 29.9289C44.3043 28.0536 46.8478 27 49.5 27C52.1522 27 54.6957 28.0536 56.5711 29.9289C58.4464 31.8043 59.5 34.3478 59.5 37C59.5 39.6522 58.4464 42.1957 56.5711 44.0711C54.6957 45.9464 52.1522 47 49.5 47C46.8478 47 44.3043 45.9464 42.4289 44.0711C40.5536 42.1957 39.5 39.6522 39.5 37ZM39.5 52C36.1848 52 33.0054 53.317 30.6612 55.6612C28.317 58.0054 27 61.1848 27 64.5C27 66.4891 27.7902 68.3968 29.1967 69.8033C30.6032 71.2098 32.5109 72 34.5 72H64.5C66.4891 72 68.3968 71.2098 69.8033 69.8033C71.2098 68.3968 72 66.4891 72 64.5C72 61.1848 70.683 58.0054 68.3388 55.6612C65.9946 53.317 62.8152 52 59.5 52H39.5Z" fill="white"/>
</svg>
