<svg width="32" height="32" viewBox="0 0 32 32" fill="none" xmlns="http://www.w3.org/2000/svg">
<path d="M10.2857 0C11.5429 0 12.5714 1.02857 12.5714 2.28571V5.09486C13.681 4.7469 14.8372 4.57039 16 4.57143C22.312 4.57143 27.4286 9.688 27.4286 16C27.4299 17.1629 27.2534 18.3191 26.9051 19.4286H29.7143C30.9714 19.4286 32 20.4571 32 21.7143C32 22.9714 30.9714 24 29.7143 24C28.8 24 28.3429 25.1086 28.9943 25.7486L29.0514 25.8057C29.9429 26.6971 29.9429 28.1486 29.0514 29.04C28.16 29.9314 26.7086 29.9314 25.8171 29.04L25.76 28.9829C25.1086 28.3429 24 28.8 24 29.7143C24 30.9714 22.9714 32 21.7143 32C20.4571 32 19.4286 30.9714 19.4286 29.7143V26.9051C18.319 27.2531 17.1628 27.4296 16 27.4286C9.688 27.4286 4.57143 22.312 4.57143 16C4.57143 14.8057 4.75429 13.6537 5.09486 12.5714H2.28571C1.02857 12.5714 0 11.5429 0 10.2857C0 9.02857 1.02857 8 2.28571 8C3.2 8 3.65714 6.89143 3.00571 6.25143L2.94857 6.19429C2.05714 5.30286 2.05714 3.85143 2.94857 2.96C3.84 2.06857 5.29143 2.06857 6.18286 2.96L6.24 3.01714C6.89143 3.65714 8 3.2 8 2.28571C8 1.02857 9.02857 0 10.2857 0ZM25.1429 16V15.9657C24.4334 15.7613 23.6983 15.6593 22.96 15.6629C20.9486 15.6629 18.9714 16.4743 17.52 18.0971C16.673 19.0365 16.0836 20.1791 15.8092 21.4138C15.5349 22.6485 15.5848 23.9332 15.9543 25.1429H16C17.175 25.1444 18.3392 24.919 19.4286 24.4789V23.4286C19.4286 21.2229 21.2229 19.4286 23.4286 19.4286H24.4789C24.919 18.3392 25.1444 17.175 25.1429 16ZM24.5897 12.8617C24.1798 11.7418 23.5547 10.713 22.7497 9.83314C21.91 9.62493 21.048 9.51977 20.1829 9.52C17.2457 9.52 14.32 10.7314 12.2171 13.0971C11.0672 14.3915 10.2489 15.9459 9.83284 17.6265C9.41675 19.3072 9.41529 21.0638 9.82857 22.7451C10.7046 23.5478 11.7286 24.172 12.8434 24.5829C12.7692 24.2368 12.7207 23.8858 12.6983 23.5326C12.6183 22.2069 12.8389 20.8217 13.2617 19.576C13.7074 18.2846 14.3909 17.176 15.3051 16.1474C16.2682 15.0681 17.4473 14.2031 18.7659 13.6086C20.0846 13.014 21.5135 12.7031 22.96 12.696C23.5109 12.696 24.0549 12.7589 24.5897 12.8617ZM16 6.85714C14.7125 6.85702 13.4394 7.12883 12.2642 7.65478C11.089 8.18073 10.0382 8.94897 9.18046 9.90919C8.32273 10.8694 7.67749 12 7.28696 13.2268C6.89644 14.4537 6.76944 15.7492 6.91429 17.0286C7.01257 16.6126 7.13143 16.2011 7.26857 15.7943C7.86286 14.0686 8.77714 12.4914 10 11.12C11.8593 9.01915 14.3273 7.55024 17.0606 6.91772C16.7085 6.8772 16.3544 6.85698 16 6.85714Z" fill="white"/>
</svg>
