<svg width="25" height="24" viewBox="0 0 25 24" fill="none" xmlns="http://www.w3.org/2000/svg">
<path d="M19.7917 17H12.5C11.351 17 10.4167 17.897 10.4167 19C10.4167 20.103 11.351 21 12.5 21H19.7917C20.9406 21 21.875 20.103 21.875 19C21.875 17.897 20.9406 17 19.7917 17ZM19.7917 10H12.5C11.351 10 10.4167 10.897 10.4167 12C10.4167 13.103 11.351 14 12.5 14H19.7917C20.9406 14 21.875 13.103 21.875 12C21.875 10.897 20.9406 10 19.7917 10ZM19.7917 3H12.5C11.351 3 10.4167 3.897 10.4167 5C10.4167 6.103 11.351 7 12.5 7H19.7917C20.9406 7 21.875 6.103 21.875 5C21.875 3.897 20.9406 3 19.7917 3Z" fill="#FD814A"/>
<path d="M5.20832 21.5C6.64656 21.5 7.81249 20.3807 7.81249 19C7.81249 17.6193 6.64656 16.5 5.20832 16.5C3.77008 16.5 2.60416 17.6193 2.60416 19C2.60416 20.3807 3.77008 21.5 5.20832 21.5Z" fill="#FD814A"/>
<path d="M5.20832 14.5C6.64656 14.5 7.81249 13.3807 7.81249 12C7.81249 10.6193 6.64656 9.5 5.20832 9.5C3.77008 9.5 2.60416 10.6193 2.60416 12C2.60416 13.3807 3.77008 14.5 5.20832 14.5Z" fill="#FD814A"/>
<path d="M5.20832 7.5C6.64656 7.5 7.81249 6.38071 7.81249 5C7.81249 3.61929 6.64656 2.5 5.20832 2.5C3.77008 2.5 2.60416 3.61929 2.60416 5C2.60416 6.38071 3.77008 7.5 5.20832 7.5Z" fill="#FD814A"/>
</svg>
