<svg width="24" height="26" viewBox="0 0 24 26" fill="none" xmlns="http://www.w3.org/2000/svg">
<path d="M13.0222 0C7.57661 0 3.18549 4.26111 2.91105 9.62L0.137717 13.2744C-0.20895 13.7222 0.137717 14.4444 0.744383 14.4444H2.91105V18.7778C2.91105 20.3811 4.19661 21.6667 5.79994 21.6667H7.24438V26H17.3555V19.2256C20.7788 17.6078 23.1333 14.1556 23.1333 10.1111C23.1333 4.53556 18.6266 0 13.0222 0ZM8.68883 11.5556C7.89438 11.5556 7.24438 10.9056 7.24438 10.1111C7.24438 9.31667 7.89438 8.66667 8.68883 8.66667C9.48327 8.66667 10.1333 9.31667 10.1333 10.1111C10.1333 10.9056 9.48327 11.5556 8.68883 11.5556ZM13.0222 11.5556C12.2277 11.5556 11.5777 10.9056 11.5777 10.1111C11.5777 9.31667 12.2277 8.66667 13.0222 8.66667C13.8166 8.66667 14.4666 9.31667 14.4666 10.1111C14.4666 10.9056 13.8166 11.5556 13.0222 11.5556ZM17.3555 11.5556C16.561 11.5556 15.911 10.9056 15.911 10.1111C15.911 9.31667 16.561 8.66667 17.3555 8.66667C18.1499 8.66667 18.7999 9.31667 18.7999 10.1111C18.7999 10.9056 18.1499 11.5556 17.3555 11.5556Z" fill="black"/>
</svg>
