<svg width="25" height="22" viewBox="0 0 25 22" fill="none" xmlns="http://www.w3.org/2000/svg">
<path d="M6.09722 0.104119C7.17827 -0.0800769 8.28688 -0.0193153 9.34133 0.281925C10.3958 0.583165 11.3692 1.1172 12.1898 1.84467L12.235 1.88498L12.2765 1.84834C13.0597 1.16103 13.9804 0.648632 14.9773 0.345332C15.9742 0.0420324 17.0243 -0.0451976 18.0576 0.0894616L18.3581 0.133434C19.6605 0.358312 20.8779 0.931226 21.8813 1.7915C22.8847 2.65178 23.6367 3.7674 24.0579 5.02022C24.479 6.27304 24.5534 7.61643 24.2734 8.90811C23.9933 10.1998 23.3692 11.3917 22.467 12.3576L22.2471 12.5836L22.1885 12.6337L13.0888 21.6467C12.8788 21.8545 12.6006 21.9792 12.3057 21.9976C12.0108 22.016 11.7192 21.9269 11.485 21.7468L11.3702 21.6467L2.21792 12.5811C1.24837 11.6378 0.558836 10.4445 0.225699 9.13334C-0.107438 7.82223 -0.071182 6.4445 0.330451 5.15272C0.732083 3.86095 1.48342 2.70554 2.50125 1.81447C3.51908 0.923395 4.76368 0.331425 6.09722 0.104119Z" fill="black"/>
</svg>
