<svg width="24" height="21" viewBox="0 0 24 21" fill="none" xmlns="http://www.w3.org/2000/svg">
<path d="M12 0C11.5502 -6.70248e-09 11.1048 0.0885939 10.6893 0.260723C10.2737 0.432853 9.89611 0.685147 9.57806 1.0032C9.26 1.32125 9.00771 1.69884 8.83558 2.1144C8.66345 2.52995 8.57486 2.97535 8.57486 3.42514C8.57486 3.87494 8.66345 4.32033 8.83558 4.73589C9.00771 5.15145 9.26 5.52903 9.57806 5.84708C9.89611 6.16514 10.2737 6.41743 10.6893 6.58956C11.1048 6.76169 11.5502 6.85029 12 6.85029C12.9084 6.85029 13.7796 6.48942 14.4219 5.84708C15.0643 5.20475 15.4251 4.33355 15.4251 3.42514C15.4251 2.51674 15.0643 1.64554 14.4219 1.0032C13.7796 0.360862 12.9084 0 12 0ZM19.7143 1.71086C19.0323 1.71086 18.3782 1.98177 17.896 2.46401C17.4138 2.94625 17.1429 3.6003 17.1429 4.28229C17.1429 4.96427 17.4138 5.61832 17.896 6.10056C18.3782 6.5828 19.0323 6.85371 19.7143 6.85371C20.3963 6.85371 21.0503 6.5828 21.5326 6.10056C22.0148 5.61832 22.2857 4.96427 22.2857 4.28229C22.2857 3.6003 22.0148 2.94625 21.5326 2.46401C21.0503 1.98177 20.3963 1.71086 19.7143 1.71086ZM4.28571 1.71086C3.60373 1.71086 2.94968 1.98177 2.46744 2.46401C1.9852 2.94625 1.71429 3.6003 1.71429 4.28229C1.71429 4.96427 1.9852 5.61832 2.46744 6.10056C2.94968 6.5828 3.60373 6.85371 4.28571 6.85371C4.9677 6.85371 5.62175 6.5828 6.10399 6.10056C6.58623 5.61832 6.85714 4.96427 6.85714 4.28229C6.85714 3.6003 6.58623 2.94625 6.10399 2.46401C5.62175 1.98177 4.9677 1.71086 4.28571 1.71086ZM6.85714 10.2703C6.86031 9.81771 7.04232 9.38475 7.36347 9.06585C7.68462 8.74695 8.11884 8.56799 8.57143 8.568H15.4286C15.8832 8.568 16.3193 8.74861 16.6408 9.0701C16.9622 9.39159 17.1429 9.82763 17.1429 10.2823V15.4251C17.1427 15.9647 17.0583 16.5008 16.8926 17.0143C16.513 18.1778 15.731 19.1678 14.6872 19.8067C13.6433 20.4455 12.4059 20.6913 11.1971 20.4999C9.98829 20.3085 8.88734 19.6924 8.09191 18.7623C7.29648 17.8322 6.85869 16.649 6.85714 15.4251V10.2823V10.2703ZM5.14286 10.2823C5.14286 9.65657 5.30914 9.072 5.60229 8.568H1.71429C1.25963 8.568 0.823594 8.74861 0.502103 9.0701C0.180612 9.39159 2.3728e-07 9.82763 2.3728e-07 10.2823V14.568C-0.000233225 15.2697 0.171816 15.9607 0.501039 16.5803C0.830262 17.1999 1.30659 17.7292 1.88819 18.1218C2.46979 18.5143 3.13886 18.758 3.83667 18.8315C4.53447 18.9051 5.23965 18.8061 5.89029 18.5434C5.39688 17.5776 5.14066 16.508 5.14286 15.4234V10.2823ZM18.8571 10.2823V15.4251C18.8571 16.548 18.588 17.6074 18.1097 18.5434C18.7603 18.8061 19.4655 18.9051 20.1633 18.8315C20.8611 18.758 21.5302 18.5143 22.1118 18.1218C22.6934 17.7292 23.1697 17.1999 23.499 16.5803C23.8282 15.9607 24.0002 15.2697 24 14.568V10.2823C24 9.82763 23.8194 9.39159 23.4979 9.0701C23.1764 8.74861 22.7404 8.568 22.2857 8.568H18.3977C18.6891 9.072 18.8571 9.65657 18.8571 10.2823Z" fill="#FD814A"/>
</svg>
