<svg width="500" height="500" viewBox="0 0 500 500" fill="none" xmlns="http://www.w3.org/2000/svg">
<rect width="500" height="500" rx="150" fill="url(#paint0_linear_160_65)"/>
<path d="M205.357 125C215.179 125 223.214 133.036 223.214 142.857V164.804C231.883 162.085 240.915 160.706 250 160.714C299.313 160.714 339.286 200.687 339.286 250C339.296 259.085 337.917 268.118 335.196 276.786H357.143C366.964 276.786 375 284.821 375 294.643C375 304.464 366.964 312.5 357.143 312.5C350 312.5 346.429 321.161 351.518 326.161L351.964 326.607C358.929 333.571 358.929 344.911 351.964 351.875C345 358.839 333.661 358.839 326.696 351.875L326.25 351.429C321.161 346.429 312.5 350 312.5 357.143C312.5 366.964 304.464 375 294.643 375C284.821 375 276.786 366.964 276.786 357.143V335.196C268.117 337.915 259.085 339.294 250 339.286C200.687 339.286 160.714 299.313 160.714 250C160.714 240.67 162.143 231.67 164.804 223.214H142.857C133.036 223.214 125 215.179 125 205.357C125 195.536 133.036 187.5 142.857 187.5C150 187.5 153.571 178.839 148.482 173.839L148.036 173.393C141.071 166.429 141.071 155.089 148.036 148.125C155 141.161 166.339 141.161 173.304 148.125L173.75 148.571C178.839 153.571 187.5 150 187.5 142.857C187.5 133.036 195.536 125 205.357 125ZM321.429 250V249.732C315.886 248.135 310.143 247.338 304.375 247.366C288.661 247.366 273.214 253.705 261.875 266.384C255.258 273.722 250.653 282.649 248.51 292.295C246.366 301.941 246.756 311.978 249.643 321.429H250C259.179 321.441 268.275 319.68 276.786 316.241V308.036C276.786 290.804 290.804 276.786 308.036 276.786H316.241C319.68 268.275 321.441 259.179 321.429 250ZM317.107 225.482C313.905 216.733 309.021 208.695 302.732 201.821C296.172 200.195 289.438 199.373 282.679 199.375C259.732 199.375 236.875 208.839 220.446 227.321C211.462 237.433 205.07 249.577 201.819 262.707C198.568 275.837 198.557 289.561 201.786 302.696C208.629 308.967 216.63 313.844 225.339 317.054C224.759 314.35 224.38 311.608 224.205 308.848C223.58 298.491 225.304 287.67 228.607 277.938C232.089 267.848 237.429 259.188 244.571 251.152C252.095 242.719 261.307 235.962 271.609 231.317C281.911 226.672 293.074 224.243 304.375 224.188C308.679 224.188 312.929 224.679 317.107 225.482ZM250 178.571C239.941 178.57 229.996 180.694 220.814 184.803C211.633 188.912 203.423 194.914 196.722 202.416C190.021 209.917 184.98 218.75 181.929 228.335C178.878 237.92 177.886 248.041 179.018 258.036C179.786 254.786 180.714 251.571 181.786 248.393C186.429 234.911 193.571 222.589 203.125 211.875C217.651 195.462 236.932 183.986 258.286 179.045C255.535 178.728 252.769 178.57 250 178.571Z" fill="white"/>
<defs>
<linearGradient id="paint0_linear_160_65" x1="498.777" y1="498.47" x2="320.843" y2="15.3285" gradientUnits="userSpaceOnUse">
<stop stop-color="#FC5C4C"/>
<stop offset="0.246635" stop-color="#FC684B"/>
<stop offset="0.563842" stop-color="#FD814A"/>
<stop offset="0.600307" stop-color="#FD814A"/>
<stop offset="1" stop-color="#FFAC5F"/>
</linearGradient>
</defs>
</svg>
