<svg width="242" height="73" viewBox="0 0 242 73" fill="none" xmlns="http://www.w3.org/2000/svg">
<path d="M27.8306 58.84C22.604 58.84 17.9106 57.8 13.7506 55.72C9.64396 53.5867 6.39063 50.44 3.99063 46.28C1.59063 42.0667 0.390625 36.92 0.390625 30.84C0.390625 25.9333 1.51063 21.3467 3.75063 17.08C5.99063 12.8133 9.08396 9.4 13.0306 6.84C16.9773 4.28 21.404 3 26.3106 3C30.9506 3 35.084 3.88 38.7106 5.64C42.3373 7.34666 45.1373 9.69333 47.1106 12.68C49.1373 15.6667 50.1506 19 50.1506 22.68C50.1506 25.0267 49.4573 27.0533 48.0706 28.76C46.7373 30.4667 44.8173 31.32 42.3106 31.32C40.444 31.32 39.004 31 37.9906 30.36C36.9773 29.72 35.9106 28.7333 34.7906 27.4C33.6706 26.0667 32.5773 25.08 31.5106 24.44C30.4973 23.7467 29.004 23.4 27.0306 23.4C24.524 23.4 22.364 24.36 20.5506 26.28C18.7906 28.1467 17.9106 30.44 17.9106 33.16C17.9106 36.0933 18.6573 38.5733 20.1506 40.6C21.6973 42.5733 23.7773 43.56 26.3906 43.56C28.4173 43.56 30.0173 43.2667 31.1906 42.68C32.4173 42.0933 33.6973 41.24 35.0306 40.12C36.1506 39.16 37.164 38.44 38.0706 37.96C39.0306 37.48 40.204 37.24 41.5906 37.24C43.724 37.24 45.404 37.9067 46.6306 39.24C47.8573 40.52 48.4706 42.2 48.4706 44.28C48.4706 46.7333 47.564 49.08 45.7506 51.32C43.9906 53.56 41.5373 55.3733 38.3906 56.76C35.244 58.1467 31.724 58.84 27.8306 58.84ZM70.9375 59.08C67.0975 59.1333 63.6575 58.3333 60.6175 56.68C57.6308 55.0267 55.2842 52.76 53.5775 49.88C51.9242 46.9467 51.0442 43.6933 50.9375 40.12C50.8842 36.5467 51.7108 33.3467 53.4175 30.52C55.1242 27.6933 57.4975 25.4533 60.5375 23.8C63.6308 22.1467 67.0975 21.32 70.9375 21.32C74.6708 21.32 78.0308 22.12 81.0175 23.72C84.0575 25.32 86.4575 27.56 88.2175 30.44C89.9775 33.32 90.9108 36.5467 91.0175 40.12C91.0708 43.5867 90.2442 46.76 88.5375 49.64C86.8308 52.4667 84.4308 54.7333 81.3375 56.44C78.2975 58.1467 74.8308 59.0267 70.9375 59.08ZM71.1775 47.4C72.6175 47.4 73.8708 46.84 74.9375 45.72C76.0042 44.6 76.5375 43.2933 76.5375 41.8C76.5375 40.3067 76.0042 39.0267 74.9375 37.96C73.8708 36.84 72.6175 36.28 71.1775 36.28C69.7375 36.28 68.4842 36.84 67.4175 37.96C66.3508 39.0267 65.8175 40.3067 65.8175 41.8C65.8175 43.2933 66.3508 44.6 67.4175 45.72C68.4842 46.84 69.7375 47.4 71.1775 47.4ZM113.438 59.08C109.598 59.1333 106.158 58.3333 103.118 56.68C100.131 55.0267 97.7842 52.76 96.0775 49.88C94.4242 46.9467 93.5442 43.6933 93.4375 40.12C93.3842 36.5467 94.2108 33.3467 95.9175 30.52C97.6242 27.6933 99.9975 25.4533 103.038 23.8C106.131 22.1467 109.598 21.32 113.438 21.32C117.171 21.32 120.531 22.12 123.518 23.72C126.558 25.32 128.958 27.56 130.718 30.44C132.478 33.32 133.411 36.5467 133.518 40.12C133.571 43.5867 132.744 46.76 131.038 49.64C129.331 52.4667 126.931 54.7333 123.838 56.44C120.798 58.1467 117.331 59.0267 113.438 59.08ZM113.678 47.4C115.118 47.4 116.371 46.84 117.438 45.72C118.504 44.6 119.038 43.2933 119.038 41.8C119.038 40.3067 118.504 39.0267 117.438 37.96C116.371 36.84 115.118 36.28 113.678 36.28C112.238 36.28 110.984 36.84 109.918 37.96C108.851 39.0267 108.318 40.3067 108.318 41.8C108.318 43.2933 108.851 44.6 109.918 45.72C110.984 46.84 112.238 47.4 113.678 47.4ZM143.657 20.2C141.044 20.2 138.83 19.2667 137.017 17.4C135.204 15.48 134.297 13.16 134.297 10.44C134.297 7.77333 135.204 5.50667 137.017 3.64C138.83 1.72 141.044 0.759996 143.657 0.759996C146.217 0.759996 148.404 1.72 150.217 3.64C152.084 5.50667 153.017 7.77333 153.017 10.44C153.017 13.16 152.084 15.48 150.217 17.4C148.404 19.2667 146.217 20.2 143.657 20.2ZM143.657 59C141.47 59 139.844 58.3867 138.777 57.16C137.764 55.88 137.07 53.9867 136.697 51.48C136.377 48.92 136.217 45.2933 136.217 40.6C136.217 36.6533 136.404 33.5333 136.777 31.24C137.204 28.9467 137.95 27.24 139.017 26.12C140.084 25 141.63 24.44 143.657 24.44C145.844 24.44 147.444 25.08 148.457 26.36C149.524 27.5867 150.217 29.48 150.537 32.04C150.91 34.5467 151.097 38.1467 151.097 42.84C151.097 46.7867 150.884 49.9067 150.457 52.2C150.084 54.4933 149.364 56.2 148.297 57.32C147.23 58.44 145.684 59 143.657 59ZM187.85 59C185.93 59 184.49 58.4667 183.53 57.4C182.623 56.3333 182.063 55.0267 181.85 53.48C181.637 51.9333 181.53 49.9333 181.53 47.48C181.53 44.3333 181.103 41.9067 180.25 40.2C179.397 38.4933 178.01 37.64 176.09 37.64C174.33 37.64 172.997 38.4933 172.09 40.2C171.237 41.8533 170.81 44.1467 170.81 47.08C170.81 49.9067 170.73 52.04 170.57 53.48C170.41 54.92 169.877 56.2 168.97 57.32C168.063 58.3867 166.57 58.92 164.49 58.92C161.45 58.92 159.317 56.9733 158.09 53.08C156.863 49.1333 156.25 44.52 156.25 39.24C156.25 26.44 158.943 20.04 164.33 20.04C165.823 20.04 167.05 20.4133 168.01 21.16C168.97 21.8533 169.637 22.8667 170.01 24.2C170.703 23.4533 171.77 22.7867 173.21 22.2C174.703 21.6133 176.277 21.32 177.93 21.32C183.797 21.32 188.17 23.4533 191.05 27.72C193.983 31.9867 195.45 37.7733 195.45 45.08C195.45 49.4 194.89 52.8133 193.77 55.32C192.65 57.7733 190.677 59 187.85 59ZM215.331 72.68C212.237 72.68 209.704 72.0933 207.731 70.92C205.757 69.8 204.771 68.2533 204.771 66.28C204.771 64.52 205.437 63.08 206.771 61.96C208.157 60.8933 209.891 60.36 211.971 60.36C212.344 60.36 212.957 60.4133 213.811 60.52C214.877 60.68 215.864 60.76 216.771 60.76C219.064 60.76 221.037 60.36 222.691 59.56C224.397 58.8133 225.437 57.8 225.811 56.52C224.957 57 223.757 57.4 222.211 57.72C220.664 58.04 219.011 58.2 217.251 58.2C212.717 58.2 208.984 57.32 206.051 55.56C203.171 53.8 201.091 51.64 199.811 49.08C198.531 46.4667 197.891 43.9067 197.891 41.4C197.891 37.24 198.797 33.64 200.611 30.6C202.477 27.56 204.877 25.24 207.811 23.64C210.744 22.04 213.811 21.24 217.011 21.24C218.077 21.24 219.304 21.32 220.691 21.48C222.131 21.64 223.331 21.8267 224.291 22.04C224.717 20.6 225.437 19.48 226.451 18.68C227.517 17.88 229.091 17.48 231.171 17.48C234.637 17.48 237.144 19.64 238.691 23.96C240.291 28.28 241.091 33.6133 241.091 39.96C241.091 42.9467 240.931 45.7733 240.611 48.44C239.811 55.96 237.171 61.88 232.691 66.2C228.211 70.52 222.424 72.68 215.331 72.68ZM218.291 46.2C219.944 46.2 221.384 45.6133 222.611 44.44C223.837 43.2133 224.451 41.7733 224.451 40.12C224.451 38.4667 223.837 37.0267 222.611 35.8C221.384 34.5733 219.944 33.96 218.291 33.96C216.637 33.96 215.197 34.5733 213.971 35.8C212.797 37.0267 212.211 38.4667 212.211 40.12C212.211 41.7733 212.797 43.2133 213.971 44.44C215.197 45.6133 216.637 46.2 218.291 46.2Z" fill="url(#paint0_linear_458_887)"/>
<defs>
<linearGradient id="paint0_linear_458_887" x1="117" y1="2.5" x2="117" y2="73" gradientUnits="userSpaceOnUse">
<stop stop-color="#FD814A"/>
<stop offset="0.299031" stop-color="#FD794A"/>
<stop offset="0.469848" stop-color="#FC5C4C"/>
<stop offset="0.57443" stop-color="#FD814A"/>
<stop offset="1" stop-color="#FD814A"/>
</linearGradient>
</defs>
</svg>
