<svg width="150" height="150" viewBox="0 0 150 150" fill="none" xmlns="http://www.w3.org/2000/svg">
<path d="M89.0625 65.625C91.8438 65.625 94.5626 64.8003 96.8752 63.255C99.1878 61.7098 100.99 59.5136 102.055 56.944C103.119 54.3744 103.397 51.5469 102.855 48.8191C102.312 46.0912 100.973 43.5855 99.0062 41.6188C97.0395 39.6521 94.5338 38.3128 91.806 37.7702C89.0781 37.2276 86.2506 37.5061 83.681 38.5705C81.1114 39.6348 78.9152 41.4372 77.37 43.7498C75.8247 46.0624 75 48.7812 75 51.5625C75 55.2921 76.4816 58.869 79.1188 61.5062C81.756 64.1434 85.3329 65.625 89.0625 65.625ZM89.0625 46.875C89.9896 46.875 90.8959 47.1499 91.6667 47.665C92.4376 48.1801 93.0384 48.9121 93.3932 49.7687C93.748 50.6252 93.8408 51.5677 93.6599 52.477C93.4791 53.3863 93.0326 54.2215 92.3771 54.8771C91.7215 55.5326 90.8863 55.9791 89.977 56.1599C89.0677 56.3408 88.1252 56.248 87.2687 55.8932C86.4121 55.5384 85.6801 54.9376 85.165 54.1667C84.6499 53.3959 84.375 52.4896 84.375 51.5625C84.375 50.3193 84.8689 49.127 85.7479 48.2479C86.627 47.3689 87.8193 46.875 89.0625 46.875Z" fill="#A6A6A6"/>
<path d="M121.875 18.75H28.125C25.6386 18.75 23.254 19.7377 21.4959 21.4959C19.7377 23.254 18.75 25.6386 18.75 28.125V121.875C18.75 124.361 19.7377 126.746 21.4959 128.504C23.254 130.262 25.6386 131.25 28.125 131.25H121.875C124.361 131.25 126.746 130.262 128.504 128.504C130.262 126.746 131.25 124.361 131.25 121.875V28.125C131.25 25.6386 130.262 23.254 128.504 21.4959C126.746 19.7377 124.361 18.75 121.875 18.75ZM121.875 121.875H28.125V93.75L51.5625 70.3125L77.7656 96.5156C79.5221 98.2617 81.8983 99.2418 84.375 99.2418C86.8517 99.2418 89.2279 98.2617 90.9844 96.5156L98.4375 89.0625L121.875 112.5V121.875ZM121.875 99.2344L105.047 82.4062C103.29 80.6601 100.914 79.6801 98.4375 79.6801C95.9608 79.6801 93.5846 80.6601 91.8281 82.4062L84.375 89.8594L58.1719 63.6562C56.4154 61.9101 54.0392 60.9301 51.5625 60.9301C49.0858 60.9301 46.7096 61.9101 44.9531 63.6562L28.125 80.4844V28.125H121.875V99.2344Z" fill="#A6A6A6"/>
</svg>
