<svg width="16" height="16" viewBox="0 0 16 16" fill="none" xmlns="http://www.w3.org/2000/svg">
<path d="M6.66672 11.6999L5.48672 12.8466C5.1773 13.156 4.75764 13.3298 4.32005 13.3298C3.88247 13.3298 3.46281 13.156 3.15339 12.8466C2.84397 12.5371 2.67014 12.1175 2.67014 11.6799C2.67014 11.2423 2.84397 10.8227 3.15339 10.5132L6.18005 7.4799C6.47713 7.18186 6.8774 7.00942 7.29806 6.99825C7.71872 6.98708 8.12758 7.13804 8.44005 7.4199L8.52005 7.48657C8.64647 7.61033 8.81688 7.67881 8.99379 7.67694C9.1707 7.67506 9.33962 7.60299 9.46339 7.47657C9.58715 7.35015 9.65563 7.17974 9.65376 7.00283C9.65188 6.82592 9.57981 6.657 9.45339 6.53323C9.41576 6.48458 9.37571 6.43786 9.33339 6.39323C8.76429 5.89811 8.02827 5.6378 7.27443 5.66503C6.52059 5.69226 5.80528 6.005 5.27339 6.5399L2.20672 9.57323C1.68562 10.1404 1.4038 10.887 1.4201 11.6571C1.43641 12.4271 1.74957 13.1611 2.29421 13.7057C2.83884 14.2504 3.57283 14.5635 4.34289 14.5799C5.11294 14.5962 5.85952 14.3143 6.42672 13.7932L7.58005 12.6666C7.69393 12.5423 7.75653 12.3796 7.75526 12.2111C7.75399 12.0425 7.68894 11.8807 7.57319 11.7582C7.45745 11.6357 7.29961 11.5616 7.13143 11.5508C6.96325 11.54 6.79721 11.5932 6.66672 11.6999ZM13.7934 2.20657C13.2326 1.64924 12.474 1.33643 11.6834 1.33643C10.8927 1.33643 10.1342 1.64924 9.57339 2.20657L8.42005 3.33323C8.30618 3.45747 8.24358 3.62022 8.24485 3.78874C8.24612 3.95727 8.31117 4.11906 8.42691 4.24156C8.54265 4.36406 8.70049 4.43818 8.86868 4.449C9.03686 4.45983 9.2029 4.40655 9.33339 4.2999L10.4867 3.15323C10.7961 2.84381 11.2158 2.66998 11.6534 2.66998C12.091 2.66998 12.5106 2.84381 12.8201 3.15323C13.1295 3.46265 13.3033 3.88232 13.3033 4.3199C13.3033 4.75749 13.1295 5.17715 12.8201 5.48657L9.79339 8.5199C9.49631 8.81794 9.09604 8.99038 8.67538 9.00155C8.25472 9.01272 7.84586 8.86176 7.53339 8.5799L7.45339 8.51323C7.32697 8.38947 7.15656 8.32099 6.97965 8.32286C6.80274 8.32474 6.63382 8.39681 6.51005 8.52323C6.38629 8.64965 6.31781 8.82006 6.31968 8.99697C6.32156 9.17388 6.39363 9.3428 6.52005 9.46657C6.56848 9.51609 6.61967 9.56283 6.67339 9.60657C7.24317 10.1002 7.97887 10.3595 8.73225 10.3323C9.48564 10.3051 10.2007 9.99336 10.7334 9.4599L13.7667 6.42657C14.3276 5.86928 14.6452 5.11272 14.6502 4.32207C14.6552 3.53141 14.3472 2.77089 13.7934 2.20657Z" fill="#484C52"/>
</svg>
