<svg width="17" height="17" viewBox="0 0 17 17" fill="none" xmlns="http://www.w3.org/2000/svg">
<path d="M8.5 1.59375C5.86035 1.59375 3.71875 3.63209 3.71875 6.14258C3.71875 9.03125 6.90625 13.609 8.07666 15.1901C8.12524 15.2568 8.18892 15.3112 8.26249 15.3486C8.33606 15.386 8.41745 15.4056 8.5 15.4056C8.58255 15.4056 8.66394 15.386 8.73751 15.3486C8.81108 15.3112 8.87476 15.2568 8.92334 15.1901C10.0938 13.6096 13.2812 9.03357 13.2812 6.14258C13.2812 3.63209 11.1396 1.59375 8.5 1.59375Z" stroke="#484C52" stroke-linecap="round" stroke-linejoin="round"/>
<path d="M8.5 7.96875C9.3802 7.96875 10.0938 7.2552 10.0938 6.375C10.0938 5.4948 9.3802 4.78125 8.5 4.78125C7.6198 4.78125 6.90625 5.4948 6.90625 6.375C6.90625 7.2552 7.6198 7.96875 8.5 7.96875Z" stroke="#484C52" stroke-linecap="round" stroke-linejoin="round"/>
</svg>
