<svg width="24" height="24" viewBox="0 0 24 24" fill="none" xmlns="http://www.w3.org/2000/svg">
<mask id="mask0_313_705" style="mask-type:luminance" maskUnits="userSpaceOnUse" x="0" y="0" width="24" height="24">
<path d="M12 24C18.6276 24 24 18.6276 24 12C24 5.3724 18.6276 0 12 0C5.3724 0 0 5.3724 0 12C0 13.92 0.4512 15.7344 1.2516 17.3436C1.4652 17.7708 1.536 18.2592 1.4124 18.7212L0.6984 21.3924C0.627684 21.6567 0.627749 21.9351 0.698586 22.1994C0.769424 22.4637 0.908542 22.7047 1.10198 22.8983C1.29541 23.0918 1.53636 23.2311 1.80063 23.3021C2.06491 23.3731 2.34321 23.3734 2.6076 23.3028L5.2788 22.5876C5.74249 22.4709 6.23283 22.5277 6.6576 22.7472C8.31711 23.5736 10.1461 24.0025 12 24Z" fill="white"/>
<path d="M15.6 12C15.6 12.3183 15.7264 12.6235 15.9515 12.8485C16.1765 13.0736 16.4817 13.2 16.8 13.2C17.1183 13.2 17.4235 13.0736 17.6485 12.8485C17.8736 12.6235 18 12.3183 18 12C18 11.6817 17.8736 11.3765 17.6485 11.1515C17.4235 10.9264 17.1183 10.8 16.8 10.8C16.4817 10.8 16.1765 10.9264 15.9515 11.1515C15.7264 11.3765 15.6 11.6817 15.6 12ZM10.8 12C10.8 12.3183 10.9264 12.6235 11.1515 12.8485C11.3765 13.0736 11.6817 13.2 12 13.2C12.3183 13.2 12.6235 13.0736 12.8485 12.8485C13.0736 12.6235 13.2 12.3183 13.2 12C13.2 11.6817 13.0736 11.3765 12.8485 11.1515C12.6235 10.9264 12.3183 10.8 12 10.8C11.6817 10.8 11.3765 10.9264 11.1515 11.1515C10.9264 11.3765 10.8 11.6817 10.8 12ZM6 12C6 12.3183 6.12643 12.6235 6.35147 12.8485C6.57652 13.0736 6.88174 13.2 7.2 13.2C7.51826 13.2 7.82348 13.0736 8.04853 12.8485C8.27357 12.6235 8.4 12.3183 8.4 12C8.4 11.6817 8.27357 11.3765 8.04853 11.1515C7.82348 10.9264 7.51826 10.8 7.2 10.8C6.88174 10.8 6.57652 10.9264 6.35147 11.1515C6.12643 11.3765 6 11.6817 6 12Z" fill="black"/>
</mask>
<g mask="url(#mask0_313_705)">
<path d="M-2.39999 -2.39999H26.4V26.4H-2.39999V-2.39999Z" fill="#FD814A"/>
</g>
</svg>
