<svg width="34" height="32" viewBox="0 0 34 32" fill="none" xmlns="http://www.w3.org/2000/svg">
<rect width="33.4059" height="32" rx="10" transform="matrix(-1 0 0 1 33.4059 0)" fill="#FC5C4C"/>
<path d="M15.6715 6.02478C10.8898 6.02478 7 9.91456 7 14.6963C7 19.478 10.8898 23.3678 15.6715 23.3678C17.1333 23.3678 18.5703 23.0209 19.7843 22.352C19.8815 22.469 19.9893 22.5768 20.1063 22.674L22.5839 25.1516C22.8127 25.409 23.0917 25.617 23.4037 25.7627C23.7157 25.9084 24.0543 25.9888 24.3985 25.9989C24.7428 26.009 25.0854 25.9487 25.4055 25.8216C25.7256 25.6945 26.0163 25.5033 26.2598 25.2598C26.5033 25.0163 26.6945 24.7256 26.8216 24.4055C26.9487 24.0854 27.009 23.7428 26.9989 23.3985C26.9888 23.0543 26.9084 22.7157 26.7627 22.4037C26.617 22.0917 26.409 21.8127 26.1516 21.5839L23.674 19.1063C23.5534 18.9856 23.4205 18.8777 23.2776 18.7843C23.9466 17.5703 24.3678 16.158 24.3678 14.6715C24.3678 9.88978 20.478 6 15.6963 6L15.6715 6.02478ZM15.6715 8.50235C19.1153 8.50235 21.8654 11.2524 21.8654 14.6963C21.8654 16.3315 21.2708 17.8428 20.2302 18.9577C20.2054 18.9825 20.1807 19.0072 20.1559 19.032C20.0389 19.1293 19.9311 19.2371 19.8338 19.3541C18.7437 20.3451 17.2571 20.915 15.6467 20.915C12.2029 20.915 9.45279 18.1649 9.45279 14.721C9.45279 11.2772 12.2029 8.52712 15.6467 8.52712L15.6715 8.50235Z" fill="white"/>
</svg>
