<svg width="19" height="18" viewBox="0 0 19 18" fill="none" xmlns="http://www.w3.org/2000/svg">
<path d="M8.22769 0.725034C8.33515 0.507393 8.50135 0.324152 8.70749 0.196026C8.91364 0.0679008 9.15153 0 9.39425 0C9.63697 0 9.87485 0.0679008 10.081 0.196026C10.2872 0.324152 10.4533 0.507393 10.5608 0.725034L12.7595 5.1802L17.6758 5.89575C17.9161 5.93041 18.142 6.03165 18.3277 6.188C18.5135 6.34436 18.6519 6.54959 18.7271 6.78047C18.8023 7.01136 18.8114 7.25869 18.7533 7.49447C18.6953 7.73026 18.5724 7.94509 18.3985 8.11466L14.8396 11.5825L15.6795 16.4786C15.7206 16.7179 15.694 16.964 15.6025 17.1889C15.5111 17.4139 15.3585 17.6087 15.1621 17.7515C14.9656 17.8942 14.7332 17.9791 14.491 17.9966C14.2488 18.0141 14.0065 17.9635 13.7916 17.8504L9.39425 15.5375L4.9969 17.8504C4.782 17.9635 4.53974 18.0141 4.29754 17.9966C4.05534 17.9791 3.82287 17.8942 3.62643 17.7515C3.42998 17.6087 3.27741 17.4139 3.18597 17.1889C3.09453 16.964 3.06788 16.7179 3.10902 16.4786L3.94744 11.5825L0.391397 8.11321C0.218032 7.94368 0.0954953 7.72908 0.0376121 7.49361C-0.020271 7.25814 -0.0111968 7.01118 0.063811 6.7806C0.138819 6.55001 0.276775 6.34498 0.462114 6.18863C0.647453 6.03228 0.872798 5.93084 1.11272 5.89575L6.02758 5.1802L8.22769 0.725034ZM9.3928 1.6285L7.29098 5.88852C7.19766 6.07746 7.05983 6.24091 6.88936 6.36479C6.71889 6.48868 6.52087 6.5693 6.31235 6.59973L1.60999 7.28347L5.0128 10.5995C5.16372 10.747 5.27652 10.9289 5.3415 11.1296C5.40647 11.3303 5.42166 11.5438 5.38575 11.7516L4.58348 16.4352L8.79001 14.2235C8.9766 14.1255 9.18421 14.0743 9.39497 14.0743C9.60573 14.0743 9.81334 14.1255 9.99993 14.2235L14.2065 16.4352L13.4027 11.7516C13.3668 11.5438 13.382 11.3303 13.447 11.1296C13.512 10.9289 13.6248 10.747 13.7757 10.5995L17.1785 7.28347L12.4762 6.59973C12.2676 6.5693 12.0696 6.48868 11.8991 6.36479C11.7287 6.24091 11.5908 6.07746 11.4975 5.88852L9.3928 1.6285Z" fill="#FFB800"/>
</svg>
