<svg width="24" height="29" viewBox="0 0 24 29" fill="none" xmlns="http://www.w3.org/2000/svg">
<path fill-rule="evenodd" clip-rule="evenodd" d="M12.1481 0.167582C10.8631 1.09355 9.81673 2.31191 9.09549 3.72206C8.37424 5.13221 7.99878 6.69369 8.00009 8.27758V8.34158C8.00809 9.54158 8.22809 10.6936 8.62209 11.7596C8.94209 12.6156 8.21409 13.5796 7.40209 13.1596C5.89296 12.3758 4.60748 11.2218 3.66609 9.80558C3.26209 9.19758 2.37009 9.07958 1.97009 9.68958C0.651079 11.6977 -0.034761 14.0556 0.00135654 16.4579C0.0374741 18.8602 0.793887 21.1964 2.17267 23.164C3.55146 25.1316 5.48913 26.64 7.73484 27.4939C9.98056 28.3479 12.4309 28.5081 14.7687 27.9537C17.1064 27.3994 19.224 26.1561 20.8472 24.3847C22.4704 22.6134 23.5245 20.3956 23.873 18.0184C24.2216 15.6412 23.8485 13.2141 22.8022 11.0514C21.7558 8.88858 20.0843 7.0897 18.0041 5.88758L17.9961 5.87358C15.9882 4.71701 14.4463 2.89651 13.6361 0.725581C13.4041 0.105582 12.6821 -0.216418 12.1481 0.167582ZM13.7081 12.5216C14.6514 12.8013 15.5114 13.3086 16.2125 13.9989C16.9136 14.6892 17.4342 15.5412 17.7286 16.48C18.023 17.4188 18.0821 18.4156 17.9007 19.3826C17.7193 20.3496 17.3029 21.2572 16.6883 22.0254C16.0736 22.7937 15.2796 23.3991 14.3759 23.7883C13.4723 24.1775 12.4869 24.3386 11.5064 24.2574C10.5258 24.1762 9.58032 23.8552 8.75302 23.3227C7.92572 22.7902 7.24201 22.0625 6.76209 21.2036C6.35209 20.4736 7.19209 19.8156 8.00209 20.0236C9.22849 20.3392 10.5122 20.3597 11.7481 20.0836C12.3241 19.9536 12.5741 19.3116 12.3901 18.7516C12.1307 17.9519 11.9991 17.1163 12.0001 16.2756C12.0001 15.1056 12.2521 13.9956 12.7021 12.9936C12.7839 12.8062 12.9312 12.6552 13.1164 12.5687C13.3015 12.4821 13.5119 12.4641 13.7081 12.5216Z" fill="#FD814A"/>
</svg>
