<svg width="19" height="18" viewBox="0 0 19 18" fill="none" xmlns="http://www.w3.org/2000/svg">
<path d="M17.6128 5.7708C17.4308 5.54105 17.207 5.35707 16.9563 5.23107C16.7055 5.10507 16.4336 5.03994 16.1585 5.04H11.6341V3.6C11.6341 2.64522 11.2937 1.72955 10.6876 1.05442C10.0815 0.379285 9.25953 1.84592e-07 8.40243 1.84592e-07C8.28236 -9.55803e-05 8.16463 0.037072 8.06245 0.107335C7.96028 0.177599 7.87769 0.27818 7.82396 0.3978L4.77161 7.2H1.29268C0.949841 7.2 0.621043 7.35171 0.378618 7.62177C0.136193 7.89182 0 8.25809 0 8.64V16.56C0 16.9419 0.136193 17.3082 0.378618 17.5782C0.621043 17.8483 0.949841 18 1.29268 18H15.189C15.6614 18.0002 16.1176 17.8082 16.472 17.4602C16.8263 17.1122 17.0544 16.6321 17.1135 16.11L18.083 7.47C18.1174 7.16582 18.0932 6.85698 18.0121 6.564C17.9311 6.27103 17.7949 6.00063 17.6128 5.7708ZM1.29268 8.64H4.52439V16.56H1.29268V8.64ZM16.8 7.29L15.8305 15.93C15.8108 16.104 15.7348 16.2641 15.6167 16.3801C15.4985 16.4961 15.3465 16.5601 15.189 16.56H5.81707V8.0901L8.78297 1.4814C9.22255 1.57941 9.61807 1.84406 9.90222 2.23033C10.1864 2.6166 10.3416 3.10061 10.3415 3.6V5.76C10.3415 5.95096 10.4096 6.13409 10.5308 6.26912C10.652 6.40414 10.8164 6.48 10.9878 6.48H16.1585C16.2502 6.47997 16.3409 6.50168 16.4245 6.54369C16.5081 6.5857 16.5828 6.64706 16.6434 6.72367C16.7041 6.80029 16.7495 6.89041 16.7765 6.98806C16.8035 7.0857 16.8115 7.18863 16.8 7.29Z" fill="#FC5C4C"/>
</svg>
