<svg width="24" height="23" viewBox="0 0 24 23" fill="none" xmlns="http://www.w3.org/2000/svg">
<path d="M14.1429 22.6571C14.3524 22.7143 14.5954 22.7383 14.872 22.7291C15.1486 22.72 15.3817 22.677 15.5714 22.6L24 19.4286C24 18.781 23.7714 18.2381 23.3143 17.8C22.8571 17.3619 22.3238 17.1429 21.7143 17.1429H13.8857C13.8286 17.1429 13.7619 17.1383 13.6857 17.1291C13.6095 17.12 13.5524 17.1055 13.5143 17.0857L11.8286 16.4857C11.6762 16.4286 11.5714 16.3333 11.5143 16.2C11.4571 16.0667 11.4476 15.9238 11.4857 15.7714C11.5238 15.6381 11.619 15.5333 11.7714 15.4571C11.9238 15.381 12.0762 15.3714 12.2286 15.4286L13.5143 15.9143C13.5905 15.9524 13.6526 15.9764 13.7006 15.9863C13.7486 15.9962 13.8198 16.0008 13.9143 16H16.9143C17.2762 16 17.595 15.8762 17.8709 15.6286C18.1467 15.381 18.285 15.0571 18.2857 14.6571C18.2857 14.3905 18.2046 14.1333 18.0423 13.8857C17.88 13.6381 17.6659 13.4667 17.4 13.3714L9.48571 10.4286C9.35238 10.3905 9.21905 10.357 9.08571 10.328C8.95238 10.2991 8.81905 10.285 8.68571 10.2857H6.85714V20.6L14.1429 22.6571ZM0 20.5714C0 21.2 0.224 21.7383 0.672 22.1863C1.12 22.6343 1.6579 22.8579 2.28571 22.8571C2.91429 22.8571 3.45257 22.6335 3.90057 22.1863C4.34857 21.739 4.57219 21.2008 4.57143 20.5714V12.5714C4.57143 11.9429 4.34781 11.405 3.90057 10.9577C3.45333 10.5105 2.91505 10.2865 2.28571 10.2857C1.65714 10.2857 1.11924 10.5097 0.672 10.9577C0.224762 11.4057 0.000761905 11.9436 0 12.5714V20.5714ZM17.1429 11.6571C16.8571 11.6571 16.5764 11.605 16.3006 11.5006C16.0248 11.3962 15.7722 11.2389 15.5429 11.0286L12.4 7.94286C11.8095 7.37143 11.3097 6.73829 10.9006 6.04343C10.4914 5.34857 10.2865 4.59124 10.2857 3.77143C10.2857 2.72381 10.6526 1.83353 11.3863 1.10057C12.12 0.367622 13.0103 0.000765276 14.0571 3.37126e-06C14.6667 3.37126e-06 15.2381 0.128765 15.7714 0.386289C16.3048 0.643813 16.7619 0.991241 17.1429 1.42857C17.5238 0.99048 17.981 0.64267 18.5143 0.385146C19.0476 0.127622 19.619 -0.000758533 20.2286 3.37126e-06C21.2762 3.37126e-06 22.1669 0.366861 22.9006 1.10057C23.6343 1.83429 24.0008 2.72457 24 3.77143C24 4.59048 23.8 5.34781 23.4 6.04343C23 6.73905 22.5048 7.37219 21.9143 7.94286L18.7429 11.0286C18.5143 11.2381 18.2621 11.3954 17.9863 11.5006C17.7105 11.6057 17.4293 11.6579 17.1429 11.6571Z" fill="#FD814A"/>
</svg>
